<svg width="19" height="21" viewBox="0 0 19 21" fill="none" xmlns="http://www.w3.org/2000/svg">
<path d="M0.916626 16.9123V12.756C0.916626 10.9435 2.38538 9.46436 4.2083 9.46436H14.802C16.6145 9.46436 18.0937 10.9331 18.0937 12.756V16.9123C18.0937 18.7248 16.6249 20.2039 14.802 20.2039H4.2083C2.38538 20.2039 0.916626 18.7352 0.916626 16.9123Z" stroke="#C2C3CB" stroke-width="1.5625" stroke-linecap="round" stroke-linejoin="round"/>
<path d="M4.13538 9.4749V6.29781C4.13538 3.33948 6.54162 0.933228 9.49995 0.933228C12.4583 0.933228 14.8645 3.33948 14.8645 6.29781V9.4749H4.13538Z" stroke="#C2C3CB" stroke-width="1.5625" stroke-linecap="round" stroke-linejoin="round"/>
<path d="M9.5 16.9854V14.2979" stroke="#C2C3CB" stroke-width="1.5625" stroke-linecap="round" stroke-linejoin="round"/>
<path d="M9.49992 14.8396C10.0925 14.8396 10.5728 14.3592 10.5728 13.7666C10.5728 13.1741 10.0925 12.6937 9.49992 12.6937C8.90736 12.6937 8.427 13.1741 8.427 13.7666C8.427 14.3592 8.90736 14.8396 9.49992 14.8396Z" stroke="#C2C3CB" stroke-width="1.5625" stroke-linecap="round" stroke-linejoin="round"/>
</svg>
