<svg width="18" height="15" viewBox="0 0 18 15" fill="none" xmlns="http://www.w3.org/2000/svg">
<path d="M15.6648 14.08H2.33513C1.05081 14.08 0 13.0039 0 11.6663V2.41371C0 1.08617 1.04108 0 2.33513 0H15.6648C16.9492 0 18 1.07611 18 2.41371V11.6663C18 13.0039 16.9589 14.08 15.6648 14.08Z" fill="white" fill-opacity="0.67" stroke="#141718" stroke-width="1.5" stroke-linecap="round" stroke-linejoin="round"/>
<path d="M16.9978 0.774078L10.3135 7.63305C9.56431 8.40745 8.43567 8.40745 7.67675 7.63305L0.992432 0.774078" fill="white" fill-opacity="0.67"/>
<path d="M16.9978 0.774078L10.3135 7.63305C9.56431 8.40745 8.43567 8.40745 7.67675 7.63305L0.992432 0.774078" stroke="#141718" stroke-width="1.5" stroke-linecap="round" stroke-linejoin="round"/>
<path d="M11.0725 6.95932L16.9979 12.9031" stroke="#141718" stroke-width="1.5" stroke-linecap="round" stroke-linejoin="round"/>
<path d="M1.00208 12.9033L6.99558 7.04001" stroke="#141718" stroke-width="1.5" stroke-linecap="round" stroke-linejoin="round"/>
</svg>
