<svg width="20" height="20" viewBox="0 0 20 20" fill="none" xmlns="http://www.w3.org/2000/svg">
<path d="M12.52 16.6777C11.71 16.8877 10.87 16.9877 10 16.9877C6.73 16.9877 3.8 15.4577 1.8 13.0377C0.4 11.3477 0.4 8.73766 1.8 7.05766C1.96 6.85766 2.14 6.66766 2.32 6.47766" stroke="#C2C3CB" stroke-width="1.5" stroke-linecap="round" stroke-linejoin="round"/>
<path d="M18.2 13.0377C17.4 13.9977 16.45 14.8177 15.4 15.4577L4.59003 4.63766C6.18003 3.65766 8.02003 3.10767 10 3.10767C13.27 3.10767 16.2 4.63767 18.2 7.05767C19.6 8.73767 19.6 11.3577 18.2 13.0377Z" stroke="#C2C3CB" stroke-width="1.5" stroke-linecap="round" stroke-linejoin="round"/>
<path d="M13.08 10.0477C13.08 10.8977 12.73 11.6677 12.18 12.2277L7.82001 7.86765C8.37001 7.30765 9.15001 6.96765 10 6.96765C11.71 6.96765 13.08 8.33765 13.08 10.0477Z" stroke="#C2C3CB" stroke-width="1.5" stroke-linecap="round" stroke-linejoin="round"/>
<path d="M0.75 0.797607L4.59 4.6376L7.82 7.86761L12.18 12.2276L15.41 15.4576L19.25 19.2976" stroke="#C2C3CB" stroke-width="1.5" stroke-linecap="round" stroke-linejoin="round"/>
</svg>
