<svg width="19" height="21" viewBox="0 0 19 21" fill="none" xmlns="http://www.w3.org/2000/svg">
<path d="M0.916687 16.9123V12.756C0.916687 10.9435 2.38544 9.46436 4.20836 9.46436H14.8021C16.6146 9.46436 18.0938 10.9331 18.0938 12.756V16.9123C18.0938 18.7248 16.625 20.2039 14.8021 20.2039H4.20836C2.38544 20.2039 0.916687 18.7352 0.916687 16.9123Z" stroke="#C2C3CB" stroke-width="1.5625" stroke-linecap="round" stroke-linejoin="round"/>
<path d="M4.13544 9.4749V6.29781C4.13544 3.33948 6.54168 0.933228 9.50001 0.933228C12.4583 0.933228 14.8646 3.33948 14.8646 6.29781V9.4749H4.13544Z" stroke="#C2C3CB" stroke-width="1.5625" stroke-linecap="round" stroke-linejoin="round"/>
<path d="M9.5 16.9854V14.2979" stroke="#C2C3CB" stroke-width="1.5625" stroke-linecap="round" stroke-linejoin="round"/>
<path d="M9.50004 14.8396C10.0926 14.8396 10.573 14.3592 10.573 13.7666C10.573 13.1741 10.0926 12.6937 9.50004 12.6937C8.90748 12.6937 8.42712 13.1741 8.42712 13.7666C8.42712 14.3592 8.90748 14.8396 9.50004 14.8396Z" stroke="#C2C3CB" stroke-width="1.5625" stroke-linecap="round" stroke-linejoin="round"/>
</svg>
