<svg width="18" height="19" viewBox="0 0 18 19" fill="none" xmlns="http://www.w3.org/2000/svg">
<path d="M8.68001 7.81333C10.8376 7.81333 12.5867 6.06426 12.5867 3.90667C12.5867 1.74907 10.8376 0 8.68001 0C6.52242 0 4.77335 1.74907 4.77335 3.90667C4.77335 6.06426 6.52242 7.81333 8.68001 7.81333Z" fill="white" fill-opacity="0.67" stroke="#141718" stroke-width="2" stroke-linecap="round" stroke-linejoin="round"/>
<path d="M0.786652 18.6668V16.4402C0.786652 13.8402 2.89332 11.7468 5.47999 11.7468H12.5067C15.1067 11.7468 17.2 13.8535 17.2 16.4402V18.6668" fill="white" fill-opacity="0.67"/>
<path d="M0.786652 18.6668V16.4402C0.786652 13.8402 2.89332 11.7468 5.47999 11.7468H12.5067C15.1067 11.7468 17.2 13.8535 17.2 16.4402V18.6668" stroke="#141718" stroke-width="2" stroke-linecap="round" stroke-linejoin="round"/>
</svg>
