<svg width="20" height="20" viewBox="0 0 20 20" fill="none" xmlns="http://www.w3.org/2000/svg">
<path d="M18.3333 3V8.46667C18.3333 8.85327 18.0199 9.16667 17.6333 9.16667H2.36662C1.98003 9.16667 1.66663 8.85327 1.66663 8.46667V3C1.66663 2.86739 1.7193 2.74021 1.81307 2.64645C1.90684 2.55268 2.03402 2.5 2.16663 2.5H17.8333C17.9659 2.5 18.0931 2.55268 18.1868 2.64645C18.2806 2.74021 18.3333 2.86739 18.3333 3Z" stroke="#00532C" stroke-width="1.3" stroke-linecap="round" stroke-linejoin="round"/>
<path d="M14.9999 5.83337H15.8333" stroke="#00532C" stroke-width="1.3" stroke-linecap="round" stroke-linejoin="round"/>
<path d="M7.91661 12.0834C7.91661 12.0834 7.91661 17.9167 4.99994 17.9167" stroke="#00532C" stroke-width="1.3" stroke-linecap="round" stroke-linejoin="round"/>
<path d="M12.0833 12.0834C12.0833 12.0834 12.0833 17.9167 15 17.9167" stroke="#00532C" stroke-width="1.3" stroke-linecap="round" stroke-linejoin="round"/>
<path d="M9.99994 12.0834V17.9167" stroke="#00532C" stroke-width="1.3" stroke-linecap="round" stroke-linejoin="round"/>
</svg>
