<svg width="23" height="23" viewBox="0 0 23 23" fill="none" xmlns="http://www.w3.org/2000/svg">
<path fill-rule="evenodd" clip-rule="evenodd" d="M11.5 1.72508C6.10996 1.72508 1.72501 6.11003 1.72501 11.5001C1.72501 16.8901 6.10996 21.2751 11.5 21.2751C16.8901 21.2751 21.275 16.8901 21.275 11.5001C21.275 6.11003 16.8901 1.72508 11.5 1.72508ZM11.5 23C5.1589 23 -8.33637e-09 17.8411 -5.37345e-09 11.5C-2.41053e-09 5.1589 5.1589 2.41053e-09 11.5 5.37345e-09C17.8411 8.33637e-09 23 5.1589 23 11.5C23 17.8411 17.8411 23 11.5 23Z" fill="#9E9E9E"/>
<path fill-rule="evenodd" clip-rule="evenodd" d="M15.4459 15.7464C15.2952 15.7464 15.1434 15.7073 15.0043 15.6257L10.6688 13.0393C10.4089 12.8829 10.2479 12.6012 10.2479 12.2976L10.2479 6.72236C10.2479 6.24626 10.6343 5.85986 11.1104 5.85986C11.5876 5.85986 11.9729 6.24626 11.9729 6.72236L11.9729 11.8077L15.8886 14.1422C16.2969 14.3871 16.4314 14.9161 16.1876 15.3255C16.0255 15.5958 15.7391 15.7464 15.4459 15.7464Z" fill="#9E9E9E"/>
</svg>
