<svg width="293" height="44" viewBox="0 0 293 44" fill="none" xmlns="http://www.w3.org/2000/svg">
<path opacity="0.03" d="M0 21.9321C0 18.2787 0 16.4521 0.264276 14.9269C1.56289 7.43227 7.43227 1.56289 14.9269 0.264276C16.4521 0 18.2787 0 21.9321 0H271.068C274.721 0 276.548 0 278.073 0.264276C285.568 1.56289 291.437 7.43227 292.736 14.9269C293 16.4521 293 18.2787 293 21.9321C293 25.5854 293 27.4121 292.736 28.9373C291.437 36.4319 285.568 42.3013 278.073 43.5999C276.548 43.8642 274.721 43.8642 271.068 43.8642H21.9321C18.2788 43.8642 16.4521 43.8642 14.9269 43.5999C7.43227 42.3013 1.56289 36.4319 0.264276 28.9373C0 27.4121 0 25.5854 0 21.9321Z" fill="#2E2E2E"/>
</svg>
