<svg width="50" height="50" viewBox="0 0 50 50" fill="none" xmlns="http://www.w3.org/2000/svg">
<g clip-path="url(#clip0_2070_771)">
<path d="M28.5844 24.9047C27.9594 24.2781 26.8719 24.0953 26.1922 24.1187C26.0922 22.6609 26.0922 21.15 26.0953 19.7359C26.1016 16.5953 26.1063 14.1141 25.0375 13.0422C24.6813 12.6875 24.225 12.5 23.7157 12.5C23.2844 12.5 22.9344 12.85 22.9344 13.2812C22.9344 13.7125 23.2844 14.0625 23.7157 14.0625C23.825 14.0625 23.8782 14.0937 23.9297 14.1469C24.5407 14.7594 24.536 17.4016 24.5313 19.7344C24.525 22.4875 24.5188 25.6078 25.2782 28.2234C25.4047 28.5422 25.4844 28.9703 25.5188 29.5297C25.5344 29.7734 25.4672 29.925 25.4078 29.9812C25.3938 29.9953 25.3735 30.0187 25.2938 30.0094C25.0719 29.9812 24.8516 29.9234 24.6328 29.8672C24.3422 29.7922 24.0516 29.7219 23.7563 29.6859C22.075 29.4875 20.575 30.8172 20.3407 32.7156C20.1407 34.3469 20.9469 35.8953 22.2891 36.4781C22.4313 36.5484 23.1407 36.9969 23.7157 37.3734C23.85 37.4594 23.9985 37.5 24.1438 37.5C24.3985 37.5 24.65 37.375 24.7985 37.1453C25.0344 36.7844 24.9328 36.3 24.5719 36.0641C23.9469 35.6562 23.1547 35.15 22.925 35.05C22.2125 34.7406 21.7782 33.8391 21.8922 32.9062C21.925 32.6422 21.9969 32.3984 22.1 32.1828C22.8297 32.8344 23.5469 33.4547 23.9828 33.7484C24.625 34.1922 25.3172 34.4156 26.0157 34.4156C26.5594 34.4156 27.1063 34.2797 27.6375 34.0094C29.1688 33.2234 30.1813 31.5844 30.3438 29.6219C30.5032 27.6984 29.8141 25.8562 28.5844 24.9047Z" fill="#215795"/>
<path d="M36.4469 37.5001C36.4406 37.5001 36.436 37.5001 36.4313 37.5001C35.8563 37.4907 35.3969 37.0173 35.4047 36.4423C35.4844 31.0892 35.1313 27.0829 34.325 24.1939C33.9781 22.9517 33.1797 21.8142 32.0766 20.9892L29.3969 18.9876C28.3625 18.2986 27.8485 16.9689 28.1641 15.7111L28.8422 13.2626C28.9953 12.7079 29.5719 12.3861 30.1235 12.5361C30.6781 12.6892 31.0031 13.2626 30.85 13.8173L30.1797 16.2407C30.0844 16.6236 30.25 17.0532 30.6 17.2861L33.3235 19.3189C34.7938 20.4173 35.8625 21.9486 36.3328 23.6329C37.2063 26.7595 37.5735 30.8392 37.4891 36.472C37.4797 37.0439 37.0141 37.5001 36.4469 37.5001Z" fill="#176946"/>
<path d="M13.5531 37.5002C12.9843 37.5002 12.5202 37.044 12.5124 36.4737C12.4343 31.1909 12.7499 27.3081 13.5077 24.2502C14.0234 22.1674 15.3015 20.3815 17.1062 19.2237L19.4765 17.7034C19.6968 17.5612 19.7406 17.3518 19.7468 17.2393C19.7531 17.1268 19.7327 16.9143 19.5281 16.7487C19.0327 16.3518 18.7499 15.7612 18.7499 15.1268V13.5424C18.7499 12.9659 19.2156 12.5002 19.7921 12.5002C20.3687 12.5002 20.8343 12.9674 20.8343 13.5424V15.1268C21.5015 15.6643 21.8734 16.4971 21.8265 17.3518C21.7796 18.2081 21.3218 18.994 20.6015 19.4565L18.2312 20.9768C16.8765 21.8456 15.9171 23.1862 15.5296 24.7518C14.8249 27.5909 14.5202 31.4143 14.5952 36.4424C14.6031 37.0174 14.1437 37.4924 13.5687 37.5002C13.564 37.5002 13.5577 37.5002 13.5531 37.5002Z" fill="#176946"/>
</g>
<defs>
<clipPath id="clip0_2070_771">
<rect width="50" height="50" fill="white"/>
</clipPath>
</defs>
</svg>
