<svg width="46" height="44" viewBox="0 0 46 44" fill="none" xmlns="http://www.w3.org/2000/svg">
<path d="M0 22C0 18.7549 0 17.1324 0.202997 15.7732C1.40507 7.7242 7.7242 1.40507 15.7732 0.202997C17.1324 0 18.7549 0 22 0H24C27.2451 0 28.8676 0 30.2268 0.202997C38.2758 1.40507 44.5949 7.7242 45.797 15.7732C46 17.1324 46 18.7549 46 22C46 25.2451 46 26.8676 45.797 28.2268C44.5949 36.2758 38.2758 42.5949 30.2268 43.797C28.8676 44 27.2451 44 24 44H22C18.7549 44 17.1324 44 15.7732 43.797C7.7242 42.5949 1.40507 36.2758 0.202997 28.2268C0 26.8676 0 25.2451 0 22Z" fill="#2D57AF"/>
<line x1="16.1051" y1="27.9976" x2="30.5597" y2="27.9976" stroke="white" stroke-width="2.02279" stroke-linecap="round" stroke-linejoin="round"/>
<path d="M21.3936 27.239C22.216 27.239 22.8055 27.8652 22.8057 28.5447C22.8057 29.2243 22.2161 29.8513 21.3936 29.8513C20.5712 29.8512 19.9825 29.2242 19.9825 28.5447C19.9827 27.8653 20.5714 27.2392 21.3936 27.239Z" fill="#141718" stroke="white" stroke-width="2.02279"/>
<line x1="16.1051" y1="21.5076" x2="30.5597" y2="21.5076" stroke="white" stroke-width="2.02279" stroke-linecap="round" stroke-linejoin="round"/>
<path d="M27.2091 20.564C28.0315 20.564 28.621 21.1902 28.6212 21.8696C28.6212 22.5492 28.0316 23.1763 27.2091 23.1763C26.3867 23.1761 25.798 22.5491 25.798 21.8696C25.7982 21.1903 26.3869 20.5641 27.2091 20.564Z" fill="#141718" stroke="white" stroke-width="2.02279"/>
<line x1="16.1051" y1="15.0183" x2="30.5597" y2="15.0183" stroke="white" stroke-width="2.02279" stroke-linecap="round" stroke-linejoin="round"/>
<path d="M19.4551 14.0742C20.2774 14.0742 20.867 14.7004 20.8672 15.3799C20.8672 16.0595 20.2776 16.6865 19.4551 16.6865C18.6327 16.6864 18.0439 16.0594 18.0439 15.3799C18.0442 14.7005 18.6329 14.0744 19.4551 14.0742Z" fill="#141718" stroke="white" stroke-width="2.02279"/>
</svg>
