<svg width="48" height="44" viewBox="0 0 48 44" fill="none" xmlns="http://www.w3.org/2000/svg">
<path d="M0 22C0 18.7549 0 17.1324 0.202997 15.7732C1.40507 7.7242 7.7242 1.40507 15.7732 0.202997C17.1324 0 18.7549 0 22 0H26C29.2451 0 30.8676 0 32.2268 0.202997C40.2758 1.40507 46.5949 7.7242 47.797 15.7732C48 17.1324 48 18.7549 48 22C48 25.2451 48 26.8676 47.797 28.2268C46.5949 36.2758 40.2758 42.5949 32.2268 43.797C30.8676 44 29.2451 44 26 44H22C18.7549 44 17.1324 44 15.7732 43.797C7.7242 42.5949 1.40507 36.2758 0.202997 28.2268C0 26.8676 0 25.2451 0 22Z" fill="#2D57AF"/>
<line x1="14.0114" y1="27.9351" x2="34.9136" y2="27.9351" stroke="white" stroke-width="2.02279" stroke-linecap="round" stroke-linejoin="round"/>
<path d="M21.7651 27.1765C22.5179 27.1765 23.1557 27.3881 23.5767 27.6775C24.0015 27.9697 24.1253 28.2712 24.1255 28.4822C24.1255 28.6932 24.0018 28.9954 23.5767 29.2878C23.1557 29.5773 22.5179 29.7888 21.7651 29.7888C21.0125 29.7888 20.3755 29.5772 19.9546 29.2878C19.5291 28.9953 19.4058 28.6933 19.4058 28.4822C19.4059 28.2711 19.5295 27.9698 19.9546 27.6775C20.3755 27.3881 21.0125 27.1766 21.7651 27.1765Z" fill="#141718" stroke="white" stroke-width="2.02279"/>
<line x1="14.0114" y1="21.4451" x2="34.9136" y2="21.4451" stroke="white" stroke-width="2.02279" stroke-linecap="round" stroke-linejoin="round"/>
<path d="M29.8563 20.5015C30.6091 20.5015 31.2469 20.713 31.6678 21.0024C32.0927 21.2947 32.2165 21.5961 32.2167 21.8071C32.2167 22.0182 32.093 22.3204 31.6678 22.6128C31.2469 22.9022 30.6091 23.1138 29.8563 23.1138C29.1037 23.1137 28.4667 22.9022 28.0458 22.6128C27.6203 22.3203 27.4969 22.0182 27.4969 21.8071C27.4971 21.5961 27.6207 21.2947 28.0458 21.0024C28.4667 20.713 29.1037 20.5015 29.8563 20.5015Z" fill="#141718" stroke="white" stroke-width="2.02279"/>
<line x1="14.0114" y1="14.9558" x2="34.9136" y2="14.9558" stroke="white" stroke-width="2.02279" stroke-linecap="round" stroke-linejoin="round"/>
<path d="M19.0681 14.0117C19.8209 14.0117 20.4587 14.2233 20.8796 14.5127C21.3045 14.8049 21.4283 15.1064 21.4285 15.3174C21.4285 15.5284 21.3048 15.8306 20.8796 16.123C20.4587 16.4125 19.8209 16.624 19.0681 16.624C18.3155 16.624 17.6785 16.4124 17.2576 16.123C16.8321 15.8305 16.7087 15.5285 16.7087 15.3174C16.7089 15.1063 16.8325 14.805 17.2576 14.5127C17.6785 14.2233 18.3155 14.0118 19.0681 14.0117Z" fill="#141718" stroke="white" stroke-width="2.02279"/>
</svg>
