<svg width="20" height="24" viewBox="0 0 20 24" fill="none" xmlns="http://www.w3.org/2000/svg">
<path d="M13.7458 3.822L11.5786 2.916C10.8166 2.661 10.2632 1.8555 10.2632 0.999001C10.2632 0.447001 9.81627 0 9.26284 0C8.70941 0 8.26247 0.4485 8.26247 1.0005C8.26247 2.718 9.36483 4.2855 10.8736 4.788L12.9704 5.667C16.024 6.948 17.9978 9.924 17.9978 13.251C17.9978 13.6605 17.9603 14.064 17.9018 14.4615C17.6453 14.4075 17.3963 14.2755 17.1879 14.0505L17.0454 13.9095C15.955 12.741 14.0382 12.7395 12.9494 13.9095C12.4499 14.445 11.5456 14.445 11.0461 13.9095C10.1942 12.996 8.7949 12.828 7.72853 13.347C8.66142 11.31 8.88939 9.33 8.90739 7.983C8.93738 7.986 8.96738 8.001 8.99738 8.001C9.38883 8.001 9.75928 7.7685 9.91976 7.386C10.1327 6.876 9.89126 6.291 9.38133 6.078L8.22647 5.5965C7.48406 5.2845 7.00113 4.56 7.00113 3.75V1.0005C7.00113 0.447 6.55418 0 6.00075 0C5.44882 0 5.00038 0.4485 5.00038 1.0005V3.75C5.00038 5.1525 5.72628 6.426 6.89164 7.146C6.99663 8.7225 6.89164 13.0275 3.12711 16.101C1.13986 17.724 0 20.1825 0 22.848V23.001C0.00149981 23.553 0.448444 24 1.00188 24H4.39745C4.85189 24 5.26134 23.6895 5.36933 23.2275L5.70829 21.777C5.80427 21.294 6.17173 21.117 6.32471 21.063C6.47619 21.009 6.87064 20.9175 7.2411 21.228L7.41957 21.378C9.6378 23.2365 12.7739 23.4495 15.2216 21.912C18.2137 20.0325 20 16.794 20 13.2495C20 9.1155 17.5448 5.415 13.7458 3.822Z" fill="#176946"/>
</svg>
