<svg width="291" height="44" viewBox="0 0 291 44" fill="none" xmlns="http://www.w3.org/2000/svg">
<path opacity="0.03" d="M0 21.9321C0 18.2787 0 16.4521 0.264276 14.9269C1.56289 7.43227 7.43227 1.56289 14.9269 0.264276C16.4521 0 18.2787 0 21.9321 0H269.068C272.721 0 274.548 0 276.073 0.264276C283.568 1.56289 289.437 7.43227 290.736 14.9269C291 16.4521 291 18.2787 291 21.9321C291 25.5854 291 27.4121 290.736 28.9373C289.437 36.4319 283.568 42.3013 276.073 43.5999C274.548 43.8642 272.721 43.8642 269.068 43.8642H21.9321C18.2787 43.8642 16.4521 43.8642 14.9269 43.5999C7.43227 42.3013 1.56289 36.4319 0.264276 28.9373C0 27.4121 0 25.5854 0 21.9321Z" fill="#2E2E2E"/>
</svg>
