<svg width="34" height="34" viewBox="0 0 34 34" fill="none" xmlns="http://www.w3.org/2000/svg">
<path d="M17.0003 21.9584C20.1311 21.9584 22.667 19.4225 22.667 16.2917V8.50004C22.667 5.36921 20.1311 2.83337 17.0003 2.83337C13.8695 2.83337 11.3336 5.36921 11.3336 8.50004V16.2917C11.3336 19.4225 13.8695 21.9584 17.0003 21.9584Z" stroke="#F1F1F1" stroke-width="2.125" stroke-linecap="round" stroke-linejoin="round"/>
<path d="M6.16284 13.6709V16.0792C6.16284 22.0576 11.022 26.9167 17.0003 26.9167C22.9787 26.9167 27.8378 22.0576 27.8378 16.0792V13.6709" stroke="#F1F1F1" stroke-width="2.125" stroke-linecap="round" stroke-linejoin="round"/>
<path d="M15.0312 9.10917C16.3062 8.64167 17.6946 8.64167 18.9696 9.10917" stroke="#F1F1F1" stroke-width="2.125" stroke-linecap="round" stroke-linejoin="round"/>
<path d="M15.8668 12.1124C16.6177 11.914 17.3968 11.914 18.1477 12.1124" stroke="#F1F1F1" stroke-width="2.125" stroke-linecap="round" stroke-linejoin="round"/>
<path d="M17.0002 26.9166V31.1666" stroke="#F1F1F1" stroke-width="2.125" stroke-linecap="round" stroke-linejoin="round"/>
</svg>
