<svg width="110" height="110" viewBox="0 0 110 110" fill="none" xmlns="http://www.w3.org/2000/svg">
<path d="M55 7.5C61.2378 7.5 67.4145 8.72862 73.1775 11.1157C78.9404 13.5028 84.1768 17.0016 88.5876 21.4124C92.9984 25.8232 96.4972 31.0596 98.8843 36.8225C101.271 42.5855 102.5 48.7622 102.5 55C102.5 61.2378 101.271 67.4145 98.8843 73.1775C96.4972 78.9404 92.9983 84.1768 88.5876 88.5876C84.1768 92.9984 78.9404 96.4972 73.1775 98.8843C67.4145 101.271 61.2378 102.5 55 102.5C48.7622 102.5 42.5855 101.271 36.8225 98.8843C31.0596 96.4972 25.8232 92.9983 21.4124 88.5876C17.0016 84.1768 13.5028 78.9404 11.1157 73.1774C8.72862 67.4145 7.5 61.2378 7.5 55C7.5 48.7622 8.72863 42.5855 11.1157 36.8225C13.5028 31.0595 17.0017 25.8232 21.4124 21.4124C25.8232 17.0016 31.0596 13.5028 36.8226 11.1157C42.5855 8.72862 48.7622 7.5 55 7.5L55 7.5Z" stroke="#E7E5E4" stroke-width="15" stroke-linecap="round" stroke-linejoin="round"/>
</svg>
