<svg width="17" height="15" viewBox="0 0 17 15" fill="none" xmlns="http://www.w3.org/2000/svg">
<path d="M15.9375 13.125H15.625V0.9375C15.625 0.68886 15.5262 0.450403 15.3504 0.274587C15.1746 0.0987721 14.9361 0 14.6875 0H10.3125C10.0639 0 9.8254 0.0987721 9.64959 0.274587C9.47377 0.450403 9.375 0.68886 9.375 0.9375V3.75H5.9375C5.68886 3.75 5.4504 3.84877 5.27459 4.02459C5.09877 4.2004 5 4.43886 5 4.6875V7.5H2.1875C1.93886 7.5 1.7004 7.59877 1.52459 7.77459C1.34877 7.9504 1.25 8.18886 1.25 8.4375V13.125H0.9375C0.68886 13.125 0.450403 13.2238 0.274587 13.3996C0.0987721 13.5754 0 13.8139 0 14.0625C0 14.3111 0.0987721 14.5496 0.274587 14.7254C0.450403 14.9012 0.68886 15 0.9375 15H15.9375C16.1861 15 16.4246 14.9012 16.6004 14.7254C16.7762 14.5496 16.875 14.3111 16.875 14.0625C16.875 13.8139 16.7762 13.5754 16.6004 13.3996C16.4246 13.2238 16.1861 13.125 15.9375 13.125ZM11.25 1.875H13.75V13.125H11.25V1.875ZM6.875 5.625H9.375V13.125H6.875V5.625ZM3.125 9.375H5V13.125H3.125V9.375Z" fill="#219540"/>
</svg>
