<svg width="34" height="34" viewBox="0 0 34 34" fill="none" xmlns="http://www.w3.org/2000/svg">
<path d="M17.0002 21.9584C20.131 21.9584 22.6668 19.4225 22.6668 16.2917V8.50004C22.6668 5.36921 20.131 2.83337 17.0002 2.83337C13.8693 2.83337 11.3335 5.36921 11.3335 8.50004V16.2917C11.3335 19.4225 13.8693 21.9584 17.0002 21.9584Z" stroke="#F1F1F1" stroke-width="2.125" stroke-linecap="round" stroke-linejoin="round"/>
<path d="M6.1626 13.6709V16.0792C6.1626 22.0576 11.0218 26.9167 17.0001 26.9167C22.9784 26.9167 27.8376 22.0576 27.8376 16.0792V13.6709" stroke="#F1F1F1" stroke-width="2.125" stroke-linecap="round" stroke-linejoin="round"/>
<path d="M15.031 9.10917C16.306 8.64167 17.6943 8.64167 18.9693 9.10917" stroke="#F1F1F1" stroke-width="2.125" stroke-linecap="round" stroke-linejoin="round"/>
<path d="M15.8669 12.1124C16.6178 11.914 17.3969 11.914 18.1478 12.1124" stroke="#F1F1F1" stroke-width="2.125" stroke-linecap="round" stroke-linejoin="round"/>
<path d="M17.0002 26.9166V31.1666" stroke="#F1F1F1" stroke-width="2.125" stroke-linecap="round" stroke-linejoin="round"/>
</svg>
