<svg width="37" height="37" viewBox="0 0 37 37" fill="none" xmlns="http://www.w3.org/2000/svg">
<rect width="37" height="37" rx="18.5" fill="white"/>
<path d="M18.5 20.0417C19.3515 20.0417 20.0417 19.3515 20.0417 18.5C20.0417 17.6486 19.3515 16.9584 18.5 16.9584C17.6486 16.9584 16.9584 17.6486 16.9584 18.5C16.9584 19.3515 17.6486 20.0417 18.5 20.0417Z" stroke="#CBCCCD" stroke-width="3.91667" stroke-linecap="round" stroke-linejoin="round"/>
<path d="M29.2917 20.0417C30.1431 20.0417 30.8334 19.3515 30.8334 18.5C30.8334 17.6486 30.1431 16.9584 29.2917 16.9584C28.4402 16.9584 27.75 17.6486 27.75 18.5C27.75 19.3515 28.4402 20.0417 29.2917 20.0417Z" stroke="#CBCCCD" stroke-width="3.91667" stroke-linecap="round" stroke-linejoin="round"/>
<path d="M7.70835 20.0417C8.55979 20.0417 9.25002 19.3515 9.25002 18.5C9.25002 17.6486 8.55979 16.9584 7.70835 16.9584C6.85691 16.9584 6.16669 17.6486 6.16669 18.5C6.16669 19.3515 6.85691 20.0417 7.70835 20.0417Z" stroke="#CBCCCD" stroke-width="3.91667" stroke-linecap="round" stroke-linejoin="round"/>
</svg>
