<svg width="20" height="20" viewBox="0 0 20 20" fill="none" xmlns="http://www.w3.org/2000/svg">
<path d="M8.53065 5.19836C8.25555 4.84237 8.01596 4.55714 7.81851 4.35062C7.53785 4.05707 7.30562 3.87512 7.01547 3.87512C6.72532 3.87512 6.49308 4.05707 6.21243 4.35058C6.01497 4.5571 5.77535 4.84233 5.50028 5.19836C4.91959 5.94982 4.26825 6.9019 3.66622 7.87911C2.71695 9.42001 1.12451 12.2783 1.12451 14.1091C1.12451 17.3574 3.76716 20.0001 7.01543 20.0001C10.2637 20.0001 12.9063 17.3574 12.9063 14.1091C12.9063 12.2784 11.3139 9.42001 10.3646 7.87911C9.76265 6.9019 9.1113 5.94986 8.53065 5.19836ZM7.01547 18.8277C4.41362 18.8277 2.29687 16.711 2.29687 14.1091C2.29687 13.0357 3.09647 11.0929 4.49068 8.7791C5.53776 7.04137 6.54396 5.71875 7.01547 5.20594C7.48694 5.71871 8.49318 7.04133 9.54026 8.7791C10.9345 11.0929 11.7341 13.0357 11.7341 14.1091C11.7341 16.711 9.61728 18.8277 7.01547 18.8277Z" fill="#176946"/>
<path d="M17.4843 2.25805C17.1595 1.73085 16.8076 1.21652 16.4933 0.809801C16.0079 0.181632 15.7786 0 15.4709 0C15.1632 0 14.9338 0.181632 14.4484 0.809801C14.1342 1.21652 13.7823 1.73082 13.4575 2.25805C12.8228 3.28832 12.0662 4.72395 12.0662 5.71229C12.0662 7.58965 13.5936 9.11695 15.4709 9.11695C17.3482 9.11695 18.8756 7.58961 18.8756 5.71229C18.8756 4.72391 18.119 3.28832 17.4843 2.25805ZM15.4709 7.94463C14.2399 7.94463 13.2385 6.94319 13.2385 5.71229C13.2385 5.20859 13.6462 4.2252 14.329 3.08164C14.7633 2.35441 15.1913 1.75508 15.4709 1.40534C15.7505 1.75512 16.1786 2.35445 16.6128 3.08164C17.2956 4.2252 17.7033 5.20859 17.7033 5.71229C17.7032 6.94319 16.7018 7.94463 15.4709 7.94463Z" fill="#176946"/>
</svg>
